<svg width="32" height="32" viewBox="0 0 32 32" fill="none" xmlns="http://www.w3.org/2000/svg">
<g clip-path="url(#clip0_1128_6631)">
<path d="M30.48 27.43H24.39V1.52H30.48V0H4.58V1.52H22.86V9.14H18.29V10.67H22.86V15.24H21.34V16.76H18.29V15.24H16.77V16.76H12.2V13.72H10.67V16.76H3.05V13.72H1.53V16.76H0V27.43H1.53V18.29H15.24V27.43H1.53V28.95H3.05V32H4.58V28.95H22.86V32H24.39V28.95H30.48V32H32V1.52H30.48V27.43Z" fill="#000001"/>
<path d="M16.77 4.57001H10.67V6.10001H16.77V4.57001Z" fill="#000001"/>
<path d="M10.67 21.33H6.09998V22.86H10.67V21.33Z" fill="#000001"/>
<path d="M4.58005 1.51999H3.05005V7.61999H4.58005V1.51999Z" fill="#000001"/>
<path d="M9.15 10.67V13.72H10.67V12.19H15.24V15.24H16.77V13.72H19.81V15.24H21.34V12.19H16.77V10.67H10.67V9.14001H0V13.72H1.53V10.67H9.15Z" fill="#000001"/>
</g>
<defs>
<clipPath id="clip0_1128_6631">
<rect width="32" height="32" fill="white"/>
</clipPath>
</defs>
</svg>
