<svg width="33" height="32" viewBox="0 0 33 32" fill="none" xmlns="http://www.w3.org/2000/svg">
<g clip-path="url(#clip0_1128_8046)">
<path d="M32.8501 6.10001H31.3201V25.9H32.8501V6.10001Z" fill="#000001"/>
<path d="M31.32 25.9H29.8V27.43H31.32V25.9Z" fill="#000001"/>
<path d="M31.32 4.57001H29.8V6.10001H31.32V4.57001Z" fill="#000001"/>
<path d="M29.8002 7.62H28.2802V10.67H29.8002V7.62Z" fill="#000001"/>
<path d="M29.8001 27.43H3.90015V28.95H29.8001V27.43Z" fill="#000001"/>
<path d="M28.2801 22.86H26.7501V24.38H28.2801V22.86Z" fill="#000001"/>
<path d="M28.2801 10.67H26.7501V12.19H28.2801V10.67Z" fill="#000001"/>
<path d="M26.7501 21.33H25.2301V22.86H26.7501V21.33Z" fill="#000001"/>
<path d="M26.7501 12.19H25.2301V13.71H26.7501V12.19Z" fill="#000001"/>
<path d="M25.2301 19.81H23.7001V21.33H25.2301V19.81Z" fill="#000001"/>
<path d="M25.2301 13.71H23.7001V15.24H25.2301V13.71Z" fill="#000001"/>
<path d="M23.7001 18.29H22.1801V19.81H23.7001V18.29Z" fill="#000001"/>
<path d="M23.7001 15.24H22.1801V16.76H23.7001V15.24Z" fill="#000001"/>
<path d="M22.1801 16.76H19.1301V18.29H22.1801V16.76Z" fill="#000001"/>
<path d="M19.1301 18.29H14.5601V19.81H19.1301V18.29Z" fill="#000001"/>
<path d="M14.5601 16.76H11.5101V18.29H14.5601V16.76Z" fill="#000001"/>
<path d="M11.5101 18.29H9.99011V19.81H11.5101V18.29Z" fill="#000001"/>
<path d="M11.5101 15.24H9.99011V16.76H11.5101V15.24Z" fill="#000001"/>
<path d="M9.99009 19.81H8.47009V21.33H9.99009V19.81Z" fill="#000001"/>
<path d="M9.99009 13.71H8.47009V15.24H9.99009V13.71Z" fill="#000001"/>
<path d="M8.47006 21.33H6.94006V22.86H8.47006V21.33Z" fill="#000001"/>
<path d="M8.47006 12.19H6.94006V13.71H8.47006V12.19Z" fill="#000001"/>
<path d="M6.94004 22.86H5.42004V24.38H6.94004V22.86Z" fill="#000001"/>
<path d="M6.94004 10.67H5.42004V12.19H6.94004V10.67Z" fill="#000001"/>
<path d="M29.8001 3.05H3.90015V4.57H29.8001V3.05Z" fill="#000001"/>
<path d="M5.42015 7.62H3.90015V10.67H5.42015V7.62Z" fill="#000001"/>
<path d="M3.90012 25.9H2.37012V27.43H3.90012V25.9Z" fill="#000001"/>
<path d="M3.90012 4.57001H2.37012V6.10001H3.90012V4.57001Z" fill="#000001"/>
<path d="M2.3701 6.10001H0.850098V25.9H2.3701V6.10001Z" fill="#000001"/>
</g>
<defs>
<clipPath id="clip0_1128_8046">
<rect width="32" height="32" fill="white" transform="translate(0.850098)"/>
</clipPath>
</defs>
</svg>
