<svg width="32" height="32" viewBox="0 0 32 32" fill="none" xmlns="http://www.w3.org/2000/svg">
<g clip-path="url(#clip0_1128_7881)">
<path d="M30.47 18.29H28.95V15.24H27.43V13.72H25.9V1.53H24.38V3.05H22.86V4.58H24.38V13.72H15.24V7.62H21.33V6.1H7.62V7.62H13.71V13.72H12.19V15.24H10.66V22.86H9.14V24.38H10.66V25.91H21.33V24.38H12.19V16.77H13.71V15.24H25.9V16.77H27.43V21.34H22.86V22.86H30.47V24.38H22.86V25.91H21.33V27.43H10.66V25.91H9.14V24.38H1.52V22.86H9.14V21.34H4.57V4.58H6.09V3.05H4.57V1.53H3.05V18.29H1.52V19.81H0V30.48H1.52V32H30.47V30.48H32V19.81H30.47V18.29Z" fill="#000001"/>
<path d="M25.9 16.77H24.38V18.29H25.9V16.77Z" fill="#000001"/>
<path d="M24.38 18.29H22.86V19.81H24.38V18.29Z" fill="#000001"/>
<path d="M22.86 22.86H21.33V24.38H22.86V22.86Z" fill="#000001"/>
<path d="M22.86 19.81H16.76V21.34H22.86V19.81Z" fill="#000001"/>
<path d="M22.86 4.58H21.33V6.1H22.86V4.58Z" fill="#000001"/>
<path d="M16.76 18.29H15.24V19.81H16.76V18.29Z" fill="#000001"/>
<path d="M15.24 16.77H13.71V18.29H15.24V16.77Z" fill="#000001"/>
<path d="M7.61997 4.58H6.08997V6.1H7.61997V4.58Z" fill="#000001"/>
<path d="M24.3799 0H4.56995V1.53H24.3799V0Z" fill="#000001"/>
</g>
<defs>
<clipPath id="clip0_1128_7881">
<rect width="32" height="32" fill="white"/>
</clipPath>
</defs>
</svg>
