<svg width="32" height="32" viewBox="0 0 32 32" fill="none" xmlns="http://www.w3.org/2000/svg">
<path d="M3.04502 25.91H10.665V30.48H12.185V25.91H21.335V30.48H22.855V25.91H28.955V30.48H30.475V7.62H28.955V24.38H12.185V7.62H10.665V4.57H9.14502V3.05H25.905V1.52H6.09502V3.05H4.56502V4.57H3.04502V7.62H4.56502V6.1H6.09502V4.57H7.61502V6.1H6.09502V7.62H4.56502V22.86H3.04502V7.62H1.52502V30.48H3.04502V25.91Z" fill="#000001"/>
<path d="M28.955 4.57001H27.425V7.62001H28.955V4.57001Z" fill="#000001"/>
<path d="M27.425 3.05H25.905V4.57H27.425V3.05Z" fill="#000001"/>
<path d="M24.375 12.19H16.765V13.72H15.235V19.81H16.765V15.24H18.285V13.72H22.855V15.24H24.375V19.81H25.905V13.72H24.375V12.19Z" fill="#000001"/>
<path d="M15.235 9.14001H24.375V7.62001H25.905V6.10001H13.715V7.62001H15.235V9.14001Z" fill="#000001"/>
<path d="M24.375 19.81H16.765V21.33H24.375V19.81Z" fill="#000001"/>
<path d="M22.855 15.24H21.335V16.76H22.855V15.24Z" fill="#000001"/>
<path d="M21.3351 16.76H19.8051V18.29H21.3351V16.76Z" fill="#000001"/>
<path d="M19.805 15.24H18.285V16.76H19.805V15.24Z" fill="#000001"/>
</svg>
