<svg width="33" height="32" viewBox="0 0 33 32" fill="none" xmlns="http://www.w3.org/2000/svg">
<g clip-path="url(#clip0_1128_8015)">
<path d="M31.3201 13.71H29.8001V15.24H31.3201V28.95H32.8501V12.19H31.3201V13.71Z" fill="#000001"/>
<path d="M31.3201 10.67H29.8001V12.19H31.3201V10.67Z" fill="#000001"/>
<path d="M28.2801 30.48H5.42012V28.95H2.37012V30.48H3.90012V32H29.8001V30.48H31.3201V28.95H28.2801V30.48Z" fill="#000001"/>
<path d="M29.8001 9.14H28.2801V10.67H29.8001V9.14Z" fill="#000001"/>
<path d="M28.2801 27.43H26.7501V28.95H28.2801V27.43Z" fill="#000001"/>
<path d="M3.90009 15.24V16.76H6.94009V18.29H9.99009V19.81H13.0401V21.33H20.6601V19.81H23.7001V18.29H26.7501V16.76H29.8001V15.24H3.90009Z" fill="#000001"/>
<path d="M28.2801 7.62H26.7501V9.14H28.2801V7.62Z" fill="#000001"/>
<path d="M26.7501 25.9H25.2301V27.43H26.7501V25.9Z" fill="#000001"/>
<path d="M26.7501 6.10001H25.2301V7.62001H26.7501V6.10001Z" fill="#000001"/>
<path d="M25.2301 24.38H23.7001V25.9H25.2301V24.38Z" fill="#000001"/>
<path d="M25.2301 4.57001H23.7001V6.10001H25.2301V4.57001Z" fill="#000001"/>
<path d="M23.7001 22.86H22.1801V24.38H23.7001V22.86Z" fill="#000001"/>
<path d="M23.7001 3.05H22.1801V4.57H23.7001V3.05Z" fill="#000001"/>
<path d="M22.1801 21.33H20.6601V22.86H22.1801V21.33Z" fill="#000001"/>
<path d="M22.1801 1.52H20.6601V3.05H22.1801V1.52Z" fill="#000001"/>
<path d="M20.6601 0H13.0401V1.52H20.6601V0Z" fill="#000001"/>
<path d="M13.0401 21.33H11.5101V22.86H13.0401V21.33Z" fill="#000001"/>
<path d="M13.0401 1.52H11.5101V3.05H13.0401V1.52Z" fill="#000001"/>
<path d="M11.5101 22.86H9.99011V24.38H11.5101V22.86Z" fill="#000001"/>
<path d="M11.5101 3.05H9.99011V4.57H11.5101V3.05Z" fill="#000001"/>
<path d="M9.99009 24.38H8.47009V25.9H9.99009V24.38Z" fill="#000001"/>
<path d="M9.99009 4.57001H8.47009V6.10001H9.99009V4.57001Z" fill="#000001"/>
<path d="M8.47012 25.9H6.94012V27.43H8.47012V25.9Z" fill="#000001"/>
<path d="M8.47012 6.10001H6.94012V7.62001H8.47012V6.10001Z" fill="#000001"/>
<path d="M6.9401 27.43H5.4201V28.95H6.9401V27.43Z" fill="#000001"/>
<path d="M6.9401 7.62H5.4201V9.14H6.9401V7.62Z" fill="#000001"/>
<path d="M5.42009 9.14H3.90009V10.67H5.42009V9.14Z" fill="#000001"/>
<path d="M3.90012 10.67H2.37012V12.19H3.90012V10.67Z" fill="#000001"/>
<path d="M2.3701 15.24H3.9001V13.71H2.3701V12.19H0.850098V28.95H2.3701V15.24Z" fill="#000001"/>
</g>
<defs>
<clipPath id="clip0_1128_8015">
<rect width="32" height="32" fill="white" transform="translate(0.850098)"/>
</clipPath>
</defs>
</svg>
