<svg width="33" height="32" viewBox="0 0 33 32" fill="none" xmlns="http://www.w3.org/2000/svg">
<g clip-path="url(#clip0_1128_8136)">
<path d="M32.8501 1.53H31.3201V16.77H32.8501V1.53Z" fill="#000001"/>
<path d="M29.8002 19.81H28.2802V21.34H31.3202V16.77H29.8002V19.81Z" fill="#000001"/>
<path d="M28.2801 18.29H26.7501V19.81H28.2801V18.29Z" fill="#000001"/>
<path d="M29.8001 12.19H25.2301V13.72H29.8001V12.19Z" fill="#000001"/>
<path d="M29.8001 9.14999H25.2301V10.67H29.8001V9.14999Z" fill="#000001"/>
<path d="M29.8001 6.10001H26.7501V7.62001H29.8001V6.10001Z" fill="#000001"/>
<path d="M29.8001 3.05H22.1801V4.58H29.8001V3.05Z" fill="#000001"/>
<path d="M26.7501 16.77H25.2301V18.29H26.7501V16.77Z" fill="#000001"/>
<path d="M23.7101 15.24V10.67H22.1801V25.91H23.7101V16.77H25.2301V15.24H23.7101Z" fill="#000001"/>
<path d="M25.23 6.10001H13.04V7.62001H25.23V6.10001Z" fill="#000001"/>
<path d="M22.1801 25.91H16.0901V27.43H22.1801V25.91Z" fill="#000001"/>
<path d="M20.6601 3.05H16.0901V4.58H20.6601V3.05Z" fill="#000001"/>
<path d="M5.42004 13.72V22.86H19.13V13.72H5.42004ZM17.61 16.77H16.09V18.29H14.56V19.81H9.99004V18.29H8.47004V16.77H6.94004V15.24H8.47004V16.77H9.99004V18.29H14.56V16.77H16.09V15.24H17.61V16.77Z" fill="#000001"/>
<path d="M14.56 30.48H13.04V32H16.09V27.43H14.56V30.48Z" fill="#000001"/>
<path d="M14.56 3.05H13.04V4.58H14.56V3.05Z" fill="#000001"/>
<path d="M31.3201 0H11.5101V1.53H31.3201V0Z" fill="#000001"/>
<path d="M13.0401 28.96H11.5101V30.48H13.0401V28.96Z" fill="#000001"/>
<path d="M11.5101 27.43H9.99011V28.96H11.5101V27.43Z" fill="#000001"/>
<path d="M9.99012 25.91H2.37012V27.43H9.99012V25.91Z" fill="#000001"/>
<path d="M22.1801 10.67V9.15H11.5101V1.53H9.99012V9.15H2.37012V10.67H22.1801Z" fill="#000001"/>
<path d="M2.3701 10.67H0.850098V25.91H2.3701V10.67Z" fill="#000001"/>
</g>
<defs>
<clipPath id="clip0_1128_8136">
<rect width="32" height="32" fill="white" transform="translate(0.850098)"/>
</clipPath>
</defs>
</svg>
