<svg width="32" height="32" viewBox="0 0 32 32" fill="none" xmlns="http://www.w3.org/2000/svg">
<g clip-path="url(#clip0_1128_7869)">
<path d="M30.47 1.53H28.95V0H24.38V1.53H22.86V3.05H21.33V7.62H22.86V9.15H24.38V10.67H28.95V9.15H30.47V7.62H32V3.05H30.47V1.53ZM27.43 9.15H25.9V7.62H27.43V9.15ZM27.43 6.1H25.9V1.53H27.43V6.1Z" fill="#000001"/>
<path d="M28.95 15.24H27.43V30.48H28.95V15.24Z" fill="#000001"/>
<path d="M27.43 30.48H1.52002V32H27.43V30.48Z" fill="#000001"/>
<path d="M19.81 16.77V22.86H25.9V16.77H19.81ZM24.38 21.34H21.33V18.29H24.38V21.34Z" fill="#000001"/>
<path d="M13.71 27.43H3.05005V28.96H13.71V27.43Z" fill="#000001"/>
<path d="M19.81 4.58H7.62V6.1H19.81V4.58Z" fill="#000001"/>
<path d="M21.3299 10.67V9.15H7.61995V6.1H6.08995V9.15H4.56995V10.67H21.3299Z" fill="#000001"/>
<path d="M9.14005 22.86H3.05005V24.38H9.14005V22.86Z" fill="#000001"/>
<path d="M27.43 15.24V13.72H25.9V12.19H24.38V13.72H4.57002V10.67H3.05002V13.72H1.52002V15.24H27.43Z" fill="#000001"/>
<path d="M1.52 15.24H0V30.48H1.52V15.24Z" fill="#000001"/>
</g>
<defs>
<clipPath id="clip0_1128_7869">
<rect width="32" height="32" fill="white"/>
</clipPath>
</defs>
</svg>
